<svg xmlns="http://www.w3.org/2000/svg" viewBox="-36 -72 432 468"><g stroke="black"><rect x="0" y="0" width="360" height="360" stroke-width="4" fill="none"/><line x1="0" x2="360" y1="36" y2 = "36" stroke-linecap="square" stroke-width="1"/><line x1="0" x2="360" y1="72" y2 = "72" stroke-linecap="square" stroke-width="1"/><line x1="0" x2="360" y1="108" y2 = "108" stroke-linecap="square" stroke-width="1"/><line x1="0" x2="360" y1="144" y2 = "144" stroke-linecap="square" stroke-width="1"/><line x1="0" x2="360" y1="180" y2 = "180" stroke-linecap="square" stroke-width="1"/><line x1="0" x2="360" y1="216" y2 = "216" stroke-linecap="square" stroke-width="1"/><line x1="0" x2="360" y1="252" y2 = "252" stroke-linecap="square" stroke-width="1"/><line x1="0" x2="360" y1="288" y2 = "288" stroke-linecap="square" stroke-width="1"/><line x1="0" x2="360" y1="324" y2 = "324" stroke-linecap="square" stroke-width="1"/><line x1="36" x2="36" y1="0" y2 = "360" stroke-linecap="square" stroke-width="1"/><line x1="72" x2="72" y1="0" y2 = "360" stroke-linecap="square" stroke-width="1"/><line x1="108" x2="108" y1="0" y2 = "360" stroke-linecap="square" stroke-width="1"/><line x1="144" x2="144" y1="0" y2 = "360" stroke-linecap="square" stroke-width="1"/><line x1="180" x2="180" y1="0" y2 = "360" stroke-linecap="square" stroke-width="1"/><line x1="216" x2="216" y1="0" y2 = "360" stroke-linecap="square" stroke-width="1"/><line x1="252" x2="252" y1="0" y2 = "360" stroke-linecap="square" stroke-width="1"/><line x1="288" x2="288" y1="0" y2 = "360" stroke-linecap="square" stroke-width="1"/><line x1="324" x2="324" y1="0" y2 = "360" stroke-linecap="square" stroke-width="1"/><text x="54" y="-18" text-anchor="middle" stroke="transparent" dx="0" dy="9" style="font: 24px helvetica;">2</text><text x="126" y="-18" text-anchor="middle" stroke="transparent" dx="0" dy="9" style="font: 24px helvetica;">3</text><text x="234" y="-18" text-anchor="middle" stroke="transparent" dx="0" dy="9" style="font: 24px helvetica;">4</text><text x="306" y="-18" text-anchor="middle" stroke="transparent" dx="0" dy="9" style="font: 24px helvetica;">5</text><text x="90" y="90" text-anchor="middle" stroke="transparent" dx="0" dy="9" style="font: 24px helvetica;">1</text><text x="180" y="252" text-anchor="middle" stroke="transparent" dx="0" dy="9" style="font: 24px helvetica;">A</text><rect x="180" y="288" width="36" height="36"/><line x1="72" x2="144" y1="324" y2 = "324" stroke-linecap="square" stroke-width="4"/></g></svg>