<svg xmlns="http://www.w3.org/2000/svg" xmlns:xlink="http://www.w3.org/1999/xlink"> <rect x="36" y="36" width="360" height="360" stroke="black" stroke-width="4" fill="none"/><line x1="36" x2="396" y1="72" y2 = "72" stroke="black" stroke-width="1"/><line x1="36" x2="396" y1="108" y2 = "108" stroke="black" stroke-width="1"/><line x1="36" x2="396" y1="144" y2 = "144" stroke="black" stroke-width="1"/><line x1="36" x2="396" y1="180" y2 = "180" stroke="black" stroke-width="1"/><line x1="36" x2="396" y1="216" y2 = "216" stroke="black" stroke-width="1"/><line x1="36" x2="396" y1="252" y2 = "252" stroke="black" stroke-width="1"/><line x1="36" x2="396" y1="288" y2 = "288" stroke="black" stroke-width="1"/><line x1="36" x2="396" y1="324" y2 = "324" stroke="black" stroke-width="1"/><line x1="36" x2="396" y1="360" y2 = "360" stroke="black" stroke-width="1"/><line x1="72" x2="72" y1="36" y2 = "396" stroke="black" stroke-width="1"/><line x1="108" x2="108" y1="36" y2 = "396" stroke="black" stroke-width="1"/><line x1="144" x2="144" y1="36" y2 = "396" stroke="black" stroke-width="1"/><line x1="180" x2="180" y1="36" y2 = "396" stroke="black" stroke-width="1"/><line x1="216" x2="216" y1="36" y2 = "396" stroke="black" stroke-width="1"/><line x1="252" x2="252" y1="36" y2 = "396" stroke="black" stroke-width="1"/><line x1="288" x2="288" y1="36" y2 = "396" stroke="black" stroke-width="1"/><line x1="324" x2="324" y1="36" y2 = "396" stroke="black" stroke-width="1"/><line x1="360" x2="360" y1="36" y2 = "396" stroke="black" stroke-width="1"/><text x="126" y= "126" text-anchor="middle" alignment-baseline="central" style="font: 24px helvetica;">1</text><text x="198" y= "270" text-anchor="middle" alignment-baseline="central" style="font: 24px helvetica;">A</text></svg>