<svg xmlns="http://www.w3.org/2000/svg" viewBox="-72 -36 288 252"><rect x="0" y="0" width="144" height="180" stroke="black" stroke-width="4" fill="none"/><line x1="0" x2="144" y1="36" y2 = "36" stroke="black" stroke-linecap="square" stroke-width="1"/><line x1="0" x2="144" y1="72" y2 = "72" stroke="black" stroke-linecap="square" stroke-width="1"/><line x1="0" x2="144" y1="108" y2 = "108" stroke="black" stroke-linecap="square" stroke-width="1"/><line x1="0" x2="144" y1="144" y2 = "144" stroke="black" stroke-linecap="square" stroke-width="1"/><line x1="36" x2="36" y1="0" y2 = "180" stroke="black" stroke-linecap="square" stroke-width="1"/><line x1="72" x2="72" y1="0" y2 = "180" stroke="black" stroke-linecap="square" stroke-width="1"/><line x1="108" x2="108" y1="0" y2 = "180" stroke="black" stroke-linecap="square" stroke-width="1"/><text x="18" y="36" text-anchor="middle" dy="9" style="font: 24px helvetica;">1</text><text x="54" y="36" text-anchor="middle" dy="9" style="font: 24px helvetica;">2</text><text x="90" y="36" text-anchor="middle" dy="9" style="font: 24px helvetica;">3</text><text x="126" y="36" text-anchor="middle" dy="9" style="font: 24px helvetica;">4</text><text x="36" y="144" text-anchor="middle" dy="9" style="font: 24px helvetica;">5</text><text x="72" y="144" text-anchor="middle" dy="9" style="font: 24px helvetica;">6</text><text x="108" y="144" text-anchor="middle" dy="9" style="font: 24px helvetica;">7</text><text x="-18" y="36" text-anchor="middle" dy="9" style="font: 24px helvetica;">A</text><text x="-18" y="72" text-anchor="middle" dy="9" style="font: 24px helvetica;">B</text><text x="-18" y="108" text-anchor="middle" dy="9" style="font: 24px helvetica;">C</text><text x="-18" y="144" text-anchor="middle" dy="9" style="font: 24px helvetica;">D</text><text x="162" y="18" text-anchor="middle" dy="9" style="font: 24px helvetica;">E</text><text x="162" y="54" text-anchor="middle" dy="9" style="font: 24px helvetica;">F</text><text x="162" y="90" text-anchor="middle" dy="9" style="font: 24px helvetica;">G</text><text x="162" y="126" text-anchor="middle" dy="9" style="font: 24px helvetica;">H</text><text x="162" y="162" text-anchor="middle" dy="9" style="font: 24px helvetica;">I</text></svg>