<svg xmlns="http://www.w3.org/2000/svg" viewBox="-36 -36 396 396"><rect x="0" y="0" width="324" height="324" stroke="black" stroke-width="4" fill="none"/><line x1="0" x2="324" y1="36" y2 = "36" stroke="black" stroke-linecap="square" stroke-width="1"/><line x1="0" x2="324" y1="72" y2 = "72" stroke="black" stroke-linecap="square" stroke-width="1"/><line x1="0" x2="324" y1="108" y2 = "108" stroke="black" stroke-linecap="square" stroke-width="1"/><line x1="0" x2="324" y1="144" y2 = "144" stroke="black" stroke-linecap="square" stroke-width="1"/><line x1="0" x2="324" y1="180" y2 = "180" stroke="black" stroke-linecap="square" stroke-width="1"/><line x1="0" x2="324" y1="216" y2 = "216" stroke="black" stroke-linecap="square" stroke-width="1"/><line x1="0" x2="324" y1="252" y2 = "252" stroke="black" stroke-linecap="square" stroke-width="1"/><line x1="0" x2="324" y1="288" y2 = "288" stroke="black" stroke-linecap="square" stroke-width="1"/><line x1="36" x2="36" y1="0" y2 = "324" stroke="black" stroke-linecap="square" stroke-width="1"/><line x1="72" x2="72" y1="0" y2 = "324" stroke="black" stroke-linecap="square" stroke-width="1"/><line x1="108" x2="108" y1="0" y2 = "324" stroke="black" stroke-linecap="square" stroke-width="1"/><line x1="144" x2="144" y1="0" y2 = "324" stroke="black" stroke-linecap="square" stroke-width="1"/><line x1="180" x2="180" y1="0" y2 = "324" stroke="black" stroke-linecap="square" stroke-width="1"/><line x1="216" x2="216" y1="0" y2 = "324" stroke="black" stroke-linecap="square" stroke-width="1"/><line x1="252" x2="252" y1="0" y2 = "324" stroke="black" stroke-linecap="square" stroke-width="1"/><line x1="288" x2="288" y1="0" y2 = "324" stroke="black" stroke-linecap="square" stroke-width="1"/><line x1="0" x2="324" y1="108" y2 = "108" stroke="black" stroke-linecap="square" stroke-width="4"/><line x1="0" x2="324" y1="216" y2 = "216" stroke="black" stroke-linecap="square" stroke-width="4"/><line x1="108" x2="108" y1="0" y2 = "324" stroke="black" stroke-linecap="square" stroke-width="4"/><line x1="216" x2="216" y1="0" y2 = "324" stroke="black" stroke-linecap="square" stroke-width="4"/></svg>